<svg width="120" height="120" viewBox="0 0 120 120" xmlns="http://www.w3.org/2000/svg">
  <!-- Patrón de dados más grandes para casino -->
  <defs>
    <pattern id="casinoDicePattern" patternUnits="userSpaceOnUse" width="120" height="120">
      <!-- Dado principal más grande -->
      <rect x="70" y="70" width="28" height="28" rx="4" fill="rgba(255,255,255,0.04)" stroke="rgba(150,150,150,0.15)" stroke-width="1"/>
      <!-- Puntos del dado más grandes -->
      <circle cx="80" cy="80" r="2.5" fill="rgba(140,140,140,0.45)"/>
      <circle cx="88" cy="88" r="2.5" fill="rgba(140,140,140,0.45)"/>
      <circle cx="80" cy="88" r="2.5" fill="rgba(140,140,140,0.45)"/>
      <circle cx="88" cy="80" r="2.5" fill="rgba(140,140,140,0.45)"/>
      <circle cx="84" cy="84" r="2.5" fill="rgba(140,140,140,0.45)"/>
      
      <!-- Dado mediano más grande -->
      <rect x="30" y="30" width="22" height="22" rx="3" fill="rgba(255,255,255,0.03)" stroke="rgba(150,150,150,0.10)" stroke-width="0.8"/>
      <circle cx="36" cy="36" r="1.8" fill="rgba(145,145,145,0.35)"/>
      <circle cx="44" cy="44" r="1.8" fill="rgba(145,145,145,0.35)"/>
      <circle cx="38" cy="38" r="1.8" fill="rgba(145,145,145,0.35)"/>
      
      <!-- Dado más visible -->
      <rect x="15" y="80" width="18" height="18" rx="2" fill="rgba(255,255,255,0.025)" stroke="rgba(160,160,160,0.08)" stroke-width="0.6"/>
      <circle cx="20" cy="85" r="1.5" fill="rgba(155,155,155,0.30)"/>
      <circle cx="26" cy="91" r="1.5" fill="rgba(155,155,155,0.30)"/>
      <circle cx="23" cy="88" r="1.5" fill="rgba(155,155,155,0.30)"/>
      
      <!-- Dado pequeño pero visible -->
      <rect x="85" y="20" width="16" height="16" rx="2" fill="rgba(255,255,255,0.02)" stroke="rgba(170,170,170,0.06)" stroke-width="0.5"/>
      <circle cx="89" cy="24" r="1.2" fill="rgba(160,160,160,0.25)"/>
      <circle cx="95" cy="30" r="1.2" fill="rgba(160,160,160,0.25)"/>
    </pattern>
  </defs>
  
  <!-- Fondo con el patrón -->
  <rect width="120" height="120" fill="url(#casinoDicePattern)"/>
</svg>
